<svg xmlns="http://www.w3.org/2000/svg" xmlns:xlink="http://www.w3.org/1999/xlink" xmlns:lucid="lucid" width="1379.89" height="344"><g transform="translate(760 1120)" lucid:page-tab-id="0_0"><path d="M-400-820h700.8v23.6H-400z" fill="none"/><use xlink:href="#a" transform="matrix(1,0,0,1,-400,-820) translate(48.8641975308642 17.77777777777778)"/><use xlink:href="#b" transform="matrix(1,0,0,1,-400,-820) translate(111.82716049382717 17.77777777777778)"/><use xlink:href="#c" transform="matrix(1,0,0,1,-400,-820) translate(194.4814814814815 17.77777777777778)"/><use xlink:href="#d" transform="matrix(1,0,0,1,-400,-820) translate(211.76543209876544 17.77777777777778)"/><use xlink:href="#e" transform="matrix(1,0,0,1,-400,-820) translate(267.1975308641976 17.77777777777778)"/><use xlink:href="#f" transform="matrix(1,0,0,1,-400,-820) translate(372.01234567901236 17.77777777777778)"/><use xlink:href="#g" transform="matrix(1,0,0,1,-400,-820) translate(468.24691358024694 17.77777777777778)"/><use xlink:href="#h" transform="matrix(1,0,0,1,-400,-820) translate(534.9135802469136 17.77777777777778)"/><use xlink:href="#i" transform="matrix(1,0,0,1,-400,-820) translate(624.9753086419753 17.77777777777778)"/><path d="M-740-1100h429.34v36.67H-740z" fill-opacity="0"/><path d="M-310.66-1100H186.7v36.67h-497.36z" fill="#ff8f8f"/><path d="M186.7-1100h413.2v36.67H186.7z" fill="#c3f7c8"/><path d="M-740-1063.33h429.34v36.66H-740z" fill-opacity="0"/><path d="M-310.66-1063.33h137.77v36.66h-137.76z" fill="#ffd9d9"/><path d="M-172.9-1063.33h140.6v36.66h-140.6zM-32.3-1063.33h219v36.66h-219z" fill="#ffd9d9"/><path d="M186.7-1063.33h97v36.66h-97zM283.7-1063.33h105.7v36.66H283.7zM389.4-1063.33h210.5v36.66H389.4z" fill="#e3fae3"/><path d="M-740-1026.67h429.34v45H-740z" fill-opacity="0"/><path d="M-310.66-1026.67h137.77v45h-137.76z" fill="#ffd9d9"/><path d="M-172.9-1026.67h140.6v45h-140.6zM-32.3-1026.67h219v45h-219z" fill="#ffd9d9"/><path d="M186.7-1026.67h97v45h-97zM283.7-1026.67h105.7v45H283.7zM389.4-1026.67h210.5v45H389.4z" fill="#e3fae3"/><path d="M-740-981.67h429.34v33.64H-740z" fill-opacity="0"/><path d="M-310.66-981.67h137.77v33.64h-137.76z" fill="#ffd9d9"/><path d="M-172.9-981.67h140.6v33.64h-140.6zM-32.3-981.67h219v33.64h-219z" fill="#ffd9d9"/><path d="M186.7-981.67h97v33.64h-97zM283.7-981.67h105.7v33.64H283.7zM389.4-981.67h210.5v33.64H389.4z" fill="#e3fae3"/><path d="M-740-948.03h429.34v33.63H-740z" fill-opacity="0"/><path d="M-310.66-948.03h137.77v33.63h-137.76z" fill="#ffd9d9"/><path d="M-172.9-948.03h140.6v33.63h-140.6zM-32.3-948.03h219v33.63h-219z" fill="#ffd9d9"/><path d="M186.7-948.03h97v33.63h-97zM283.7-948.03h105.7v33.63H283.7zM389.4-948.03h210.5v33.63H389.4z" fill="#e3fae3"/><path d="M-740-914.4h429.34v33.63H-740z" fill-opacity="0"/><path d="M-310.66-914.4h137.77v33.63h-137.76z" fill="#ffd9d9"/><path d="M-172.9-914.4h140.6v33.63h-140.6zM-32.3-914.4h219v33.63h-219z" fill="#ffd9d9"/><path d="M186.7-914.4h97v33.63h-97zM283.7-914.4h105.7v33.63H283.7zM389.4-914.4h210.5v33.63H389.4z" fill="#e3fae3"/><path d="M-740-880.77h429.34v33.64H-740z" fill-opacity="0"/><path d="M-310.66-880.77h137.77v33.64h-137.76z" fill="#ffd9d9"/><path d="M-172.9-880.77h140.6v33.64h-140.6zM-32.3-880.77h219v33.64h-219z" fill="#ffd9d9"/><path d="M186.7-880.77h97v33.64h-97zM283.7-880.77h105.7v33.64H283.7zM389.4-880.77h210.5v33.64H389.4z" fill="#e3fae3"/><path d="M-740-1100v36.67" stroke="#000" fill="none"/><path d="M-310.66-1100v36.67M186.7-1100v36.67M599.9-1100v36.67" stroke="#000" stroke-width="2" fill="none"/><path d="M-740-1063.33v36.66M-310.66-1063.33v36.66M-172.9-1063.33v36.66M-32.3-1063.33v36.66M186.7-1063.33v36.66M283.7-1063.33v36.66M389.4-1063.33v36.66M599.9-1063.33v36.66M-740-1026.67v45M-310.66-1026.67v45M-172.9-1026.67v45M-32.3-1026.67v45M186.7-1026.67v45M283.7-1026.67v45M389.4-1026.67v45M599.9-1026.67v45M-740-981.67v33.64M-310.66-981.67v33.64M-172.9-981.67v33.64M-32.3-981.67v33.64M186.7-981.67v33.64M283.7-981.67v33.64M389.4-981.67v33.64M599.9-981.67v33.64M-740-948.03v33.63M-310.66-948.03v33.63M-172.9-948.03v33.63M-32.3-948.03v33.63M186.7-948.03v33.63M283.7-948.03v33.63M389.4-948.03v33.63M599.9-948.03v33.63M-740-914.4v33.63M-310.66-914.4v33.63M-172.9-914.4v33.63M-32.3-914.4v33.63M186.7-914.4v33.63M283.7-914.4v33.63M389.4-914.4v33.63M599.9-914.4v33.63M-740-880.77v33.64M-310.66-880.77v33.64M-172.9-880.77v33.64M-32.3-880.77v33.64M186.7-880.77v33.64M283.7-880.77v33.64M389.4-880.77v33.64M599.9-880.77v33.64M-740-1100h429.34" stroke="#000" fill="none"/><path d="M-310.66-1100H186.7M186.7-1100h413.2" stroke="#000" stroke-width="2" fill="none"/><path d="M-740-1063.33h429.34" stroke="#000" fill="none"/><path d="M-310.66-1063.33h137.77M-172.9-1063.33h140.6M-32.3-1063.33h219M186.7-1063.33h97M283.7-1063.33h105.7M389.4-1063.33h210.5" stroke="#000" stroke-width="2" fill="none"/><path d="M-740-1026.67h429.34M-310.66-1026.67h137.77M-172.9-1026.67h140.6M-32.3-1026.67h219M186.7-1026.67h97M283.7-1026.67h105.7M389.4-1026.67h210.5M-740-981.67h429.34M-310.66-981.67h137.77M-172.9-981.67h140.6M-32.3-981.67h219M186.7-981.67h97M283.7-981.67h105.7M389.4-981.67h210.5M-740-948.03h429.34M-310.66-948.03h137.77M-172.9-948.03h140.6M-32.3-948.03h219M186.7-948.03h97M283.7-948.03h105.7M389.4-948.03h210.5M-740-914.4h429.34M-310.66-914.4h137.77M-172.9-914.4h140.6M-32.3-914.4h219M186.7-914.4h97M283.7-914.4h105.7M389.4-914.4h210.5M-740-880.77h429.34M-740-847.13h429.34M-310.66-880.77h137.77M-310.66-847.13h137.77M-172.9-880.77h140.6M-172.9-847.13h140.6M-32.3-880.77h219M-32.3-847.13h219M186.7-880.77h97M186.7-847.13h97M283.7-880.77h105.7M283.7-847.13h105.7M389.4-880.77h210.5M389.4-847.13h210.5" stroke="#000" fill="none"/><use xlink:href="#j" transform="matrix(1,0,0,1,-305.65568602816495,-1095) translate(230.41975308641975 17.944444444444443)"/><use xlink:href="#k" transform="matrix(1,0,0,1,191.7104076458819,-1095) translate(190.04935555555556 17.41112)"/><use xlink:href="#l" transform="matrix(1,0,0,1,-305.65568602816495,-1058.3333333333333) translate(33.19753086419753 17.944444444444443)"/><use xlink:href="#m" transform="matrix(1,0,0,1,-167.8880600064333,-1058.3333333333333) translate(40.28395061728395 17.944444444444443)"/><use xlink:href="#n" transform="matrix(1,0,0,1,-27.2895923541181,-1058.3333333333333) translate(63.27027666666666 17.41112)"/><use xlink:href="#o" transform="matrix(1,0,0,1,191.7104076458819,-1058.3333333333333) translate(16.393765555555554 17.41112)"/><use xlink:href="#p" transform="matrix(1,0,0,1,288.7104076458819,-1058.3333333333333) translate(25.809826111111107 17.41112)"/><use xlink:href="#n" transform="matrix(1,0,0,1,394.39516185433354,-1058.3333333333333) translate(59.27027666666666 17.41112)"/><use xlink:href="#q" transform="matrix(1,0,0,1,-735,-1021.6666666666667) translate(42.83950617283949 21.944444444444443)"/><use xlink:href="#r" transform="matrix(1,0,0,1,-735,-1021.6666666666667) translate(67.53086419753085 21.944444444444443)"/><use xlink:href="#s" transform="matrix(1,0,0,1,-735,-1021.6666666666667) translate(192.09876543209876 21.944444444444443)"/><use xlink:href="#t" transform="matrix(1,0,0,1,-735,-1021.6666666666667) translate(216.79012345679013 21.944444444444443)"/><use xlink:href="#u" transform="matrix(1,0,0,1,-735,-1021.6666666666667) translate(272.28395061728395 21.944444444444443)"/><use xlink:href="#s" transform="matrix(1,0,0,1,-735,-1021.6666666666667) translate(303.14814814814815 21.944444444444443)"/><use xlink:href="#v" transform="matrix(1,0,0,1,-735,-1021.6666666666667) translate(327.8395061728395 21.944444444444443)"/><use xlink:href="#w" transform="matrix(1,0,0,1,-305.65568602816495,-1021.6666666666667) translate(57.82716049382716 21.944444444444443)"/><use xlink:href="#x" transform="matrix(1,0,0,1,-167.8880600064333,-1021.6666666666667) translate(53.15432098765432 21.944444444444443)"/><use xlink:href="#y" transform="matrix(1,0,0,1,-27.2895923541181,-1021.6666666666667) translate(8.433114999999987 21.41112)"/><use xlink:href="#z" transform="matrix(1,0,0,1,-27.2895923541181,-1021.6666666666667) translate(66.01349277777777 21.41112)"/><use xlink:href="#A" transform="matrix(1,0,0,1,-27.2895923541181,-1021.6666666666667) translate(130.05808277777777 21.41112)"/><use xlink:href="#B" transform="matrix(1,0,0,1,-27.2895923541181,-1021.6666666666667) translate(189.7026627777778 21.41112)"/><use xlink:href="#C" transform="matrix(1,0,0,1,191.7104076458819,-1021.6666666666667) translate(38.06788888888889 21.41112)"/><use xlink:href="#D" transform="matrix(1,0,0,1,288.7104076458819,-1021.6666666666667) translate(37.135777777777776 21.41112)"/><use xlink:href="#y" transform="matrix(1,0,0,1,394.39516185433354,-1021.6666666666667) translate(4.433114999999987 21.41112)"/><use xlink:href="#z" transform="matrix(1,0,0,1,394.39516185433354,-1021.6666666666667) translate(62.01349277777777 21.41112)"/><use xlink:href="#A" transform="matrix(1,0,0,1,394.39516185433354,-1021.6666666666667) translate(126.05808277777778 21.41112)"/><use xlink:href="#E" transform="matrix(1,0,0,1,394.39516185433354,-1021.6666666666667) translate(185.7026627777778 21.41112)"/><use xlink:href="#F" transform="matrix(1,0,0,1,-735,-976.6666666666666) translate(62.89843111111108 15.91112)"/><use xlink:href="#G" transform="matrix(1,0,0,1,-735,-976.6666666666666) translate(84.62687555555553 15.91112)"/><use xlink:href="#H" transform="matrix(1,0,0,1,-735,-976.6666666666666) translate(194.24687777777777 15.91112)"/><use xlink:href="#I" transform="matrix(1,0,0,1,-735,-976.6666666666666) translate(215.97532222222222 15.91112)"/><use xlink:href="#J" transform="matrix(1,0,0,1,-735,-976.6666666666666) translate(264.8100011111111 15.91112)"/><use xlink:href="#H" transform="matrix(1,0,0,1,-735,-976.6666666666666) translate(291.97055666666665 15.91112)"/><use xlink:href="#K" transform="matrix(1,0,0,1,-735,-976.6666666666666) translate(313.6990011111111 15.91112)"/><g><use xlink:href="#L" transform="matrix(1,0,0,1,-305.65568602816495,-976.6666666666666) translate(58.56788888888889 15.91112)"/></g><g><use xlink:href="#M" transform="matrix(1,0,0,1,-167.8880600064333,-976.6666666666666) translate(54.635777777777776 15.91112)"/></g><g><use xlink:href="#N" transform="matrix(1,0,0,1,-27.2895923541181,-976.6666666666666) translate(69.24559888888888 15.91112)"/><use xlink:href="#O" transform="matrix(1,0,0,1,-27.2895923541181,-976.6666666666666) translate(128.8901788888889 15.91112)"/></g><g><use xlink:href="#L" transform="matrix(1,0,0,1,191.7104076458819,-976.6666666666666) translate(38.06788888888889 15.91112)"/></g><g><use xlink:href="#M" transform="matrix(1,0,0,1,288.7104076458819,-976.6666666666666) translate(37.135777777777776 15.91112)"/></g><g><use xlink:href="#N" transform="matrix(1,0,0,1,394.39516185433354,-976.6666666666666) translate(65.24559888888888 15.91112)"/><use xlink:href="#P" transform="matrix(1,0,0,1,394.39516185433354,-976.6666666666666) translate(124.89017888888888 15.91112)"/></g><g><use xlink:href="#Q" transform="matrix(1,0,0,1,-735,-943.0335696481176) translate(62.89843111111108 15.91112)"/><use xlink:href="#G" transform="matrix(1,0,0,1,-735,-943.0335696481176) translate(84.62687555555553 15.91112)"/><use xlink:href="#H" transform="matrix(1,0,0,1,-735,-943.0335696481176) translate(194.24687777777777 15.91112)"/><use xlink:href="#R" transform="matrix(1,0,0,1,-735,-943.0335696481176) translate(215.97532222222222 15.91112)"/><use xlink:href="#J" transform="matrix(1,0,0,1,-735,-943.0335696481176) translate(264.8100011111111 15.91112)"/><use xlink:href="#H" transform="matrix(1,0,0,1,-735,-943.0335696481176) translate(291.97055666666665 15.91112)"/><use xlink:href="#S" transform="matrix(1,0,0,1,-735,-943.0335696481176) translate(313.6990011111111 15.91112)"/></g><g><use xlink:href="#T" transform="matrix(1,0,0,1,191.7104076458819,-943.0335696481176) translate(38.06788888888889 15.91112)"/></g><g><use xlink:href="#U" transform="matrix(1,0,0,1,288.7104076458819,-943.0335696481176) translate(37.135777777777776 15.91112)"/></g><g><use xlink:href="#N" transform="matrix(1,0,0,1,394.39516185433354,-943.0335696481176) translate(65.24559888888888 15.91112)"/><use xlink:href="#V" transform="matrix(1,0,0,1,394.39516185433354,-943.0335696481176) translate(124.89017888888888 15.91112)"/></g><g><use xlink:href="#W" transform="matrix(1,0,0,1,-735,-909.4004726295684) translate(62.89843111111108 15.91112)"/><use xlink:href="#G" transform="matrix(1,0,0,1,-735,-909.4004726295684) translate(84.62687555555553 15.91112)"/><use xlink:href="#H" transform="matrix(1,0,0,1,-735,-909.4004726295684) translate(194.24687777777777 15.91112)"/><use xlink:href="#X" transform="matrix(1,0,0,1,-735,-909.4004726295684) translate(215.97532222222222 15.91112)"/><use xlink:href="#J" transform="matrix(1,0,0,1,-735,-909.4004726295684) translate(264.8100011111111 15.91112)"/><use xlink:href="#H" transform="matrix(1,0,0,1,-735,-909.4004726295684) translate(291.97055666666665 15.91112)"/><use xlink:href="#Y" transform="matrix(1,0,0,1,-735,-909.4004726295684) translate(313.6990011111111 15.91112)"/></g><g><use xlink:href="#C" transform="matrix(1,0,0,1,-305.65568602816495,-909.4004726295684) translate(58.56788888888889 15.91112)"/></g><g><use xlink:href="#Z" transform="matrix(1,0,0,1,-167.8880600064333,-909.4004726295684) translate(55.17898888888889 15.91112)"/></g><g><use xlink:href="#y" transform="matrix(1,0,0,1,-27.2895923541181,-909.4004726295684) translate(8.433114999999987 15.91112)"/><use xlink:href="#z" transform="matrix(1,0,0,1,-27.2895923541181,-909.4004726295684) translate(66.01349277777777 15.91112)"/><use xlink:href="#A" transform="matrix(1,0,0,1,-27.2895923541181,-909.4004726295684) translate(130.05808277777777 15.91112)"/><use xlink:href="#E" transform="matrix(1,0,0,1,-27.2895923541181,-909.4004726295684) translate(189.7026627777778 15.91112)"/></g><g><use xlink:href="#C" transform="matrix(1,0,0,1,191.7104076458819,-909.4004726295684) translate(38.06788888888889 15.91112)"/></g><g><use xlink:href="#Z" transform="matrix(1,0,0,1,288.7104076458819,-909.4004726295684) translate(37.67898888888889 15.91112)"/></g><g><use xlink:href="#y" transform="matrix(1,0,0,1,394.39516185433354,-909.4004726295684) translate(4.433114999999987 15.91112)"/><use xlink:href="#z" transform="matrix(1,0,0,1,394.39516185433354,-909.4004726295684) translate(62.01349277777777 15.91112)"/><use xlink:href="#A" transform="matrix(1,0,0,1,394.39516185433354,-909.4004726295684) translate(126.05808277777778 15.91112)"/><use xlink:href="#E" transform="matrix(1,0,0,1,394.39516185433354,-909.4004726295684) translate(185.7026627777778 15.91112)"/></g><g><use xlink:href="#aa" transform="matrix(1,0,0,1,-735,-875.7673756110194) translate(65.61448666666664 15.91112)"/><use xlink:href="#G" transform="matrix(1,0,0,1,-735,-875.7673756110194) translate(87.34293111111108 15.91112)"/><use xlink:href="#H" transform="matrix(1,0,0,1,-735,-875.7673756110194) translate(196.96293333333332 15.91112)"/><use xlink:href="#ab" transform="matrix(1,0,0,1,-735,-875.7673756110194) translate(218.69137777777777 15.91112)"/><use xlink:href="#J" transform="matrix(1,0,0,1,-735,-875.7673756110194) translate(267.5260566666667 15.91112)"/><use xlink:href="#H" transform="matrix(1,0,0,1,-735,-875.7673756110194) translate(294.68661222222227 15.91112)"/><use xlink:href="#ac" transform="matrix(1,0,0,1,-735,-875.7673756110194) translate(316.4150566666667 15.91112)"/></g><g><use xlink:href="#T" transform="matrix(1,0,0,1,-305.65568602816495,-875.7673756110194) translate(58.56788888888889 15.91112)"/></g><g><use xlink:href="#ad" transform="matrix(1,0,0,1,-167.8880600064333,-875.7673756110194) translate(54.635777777777776 15.91112)"/></g><g><use xlink:href="#N" transform="matrix(1,0,0,1,-27.2895923541181,-875.7673756110194) translate(69.24559888888888 15.91112)"/><use xlink:href="#P" transform="matrix(1,0,0,1,-27.2895923541181,-875.7673756110194) translate(128.8901788888889 15.91112)"/></g><defs><path fill="#333" d="M30-248c87 1 191-15 191 75 0 78-77 80-158 76V0H30v-248zm33 125c57 0 124 11 124-50 0-59-68-47-124-48v98" id="ae"/><path fill="#333" d="M100-194c62-1 85 37 85 99 1 63-27 99-86 99S16-35 15-95c0-66 28-99 85-99zM99-20c44 1 53-31 53-75 0-43-8-75-51-75s-53 32-53 75 10 74 51 75" id="af"/><path fill="#333" d="M9 0v-24l116-142H16v-24h144v24L44-24h123V0H9" id="ag"/><path fill="#333" d="M117-194c89-4 53 116 60 194h-32v-121c0-31-8-49-39-48C34-167 62-67 57 0H25l-1-190h30c1 10-1 24 2 32 11-22 29-35 61-36" id="ah"/><path fill="#333" d="M33-154v-36h34v36H33zM33 0v-36h34V0H33" id="ai"/><g id="a"><use transform="matrix(0.06172839506172839,0,0,0.06172839506172839,0,0)" xlink:href="#ae"/><use transform="matrix(0.06172839506172839,0,0,0.06172839506172839,14.814814814814813,0)" xlink:href="#af"/><use transform="matrix(0.06172839506172839,0,0,0.06172839506172839,27.160493827160494,0)" xlink:href="#ag"/><use transform="matrix(0.06172839506172839,0,0,0.06172839506172839,38.27160493827161,0)" xlink:href="#ah"/><use transform="matrix(0.06172839506172839,0,0,0.06172839506172839,50.617283950617285,0)" xlink:href="#ai"/></g><path fill="#333" d="M135-143c-3-34-86-38-87 0 15 53 115 12 119 90S17 21 10-45l28-5c4 36 97 45 98 0-10-56-113-15-118-90-4-57 82-63 122-42 12 7 21 19 24 35" id="aj"/><path fill="#333" d="M24 0v-261h32V0H24" id="ak"/><path fill="#333" d="M84 4C-5 8 30-112 23-190h32v120c0 31 7 50 39 49 72-2 45-101 50-169h31l1 190h-30c-1-10 1-25-2-33-11 22-28 36-60 37" id="al"/><path fill="#333" d="M115-194c55 1 70 41 70 98S169 2 115 4C84 4 66-9 55-30l1 105H24l-1-265h31l2 30c10-21 28-34 59-34zm-8 174c40 0 45-34 45-75s-6-73-45-74c-42 0-51 32-51 76 0 43 10 73 51 73" id="am"/><path fill="#333" d="M100-194c63 0 86 42 84 106H49c0 40 14 67 53 68 26 1 43-12 49-29l28 8c-11 28-37 45-77 45C44 4 14-33 15-96c1-61 26-98 85-98zm52 81c6-60-76-77-97-28-3 7-6 17-6 28h103" id="an"/><path fill="#333" d="M96-169c-40 0-48 33-48 73s9 75 48 75c24 0 41-14 43-38l32 2c-6 37-31 61-74 61-59 0-76-41-82-99-10-93 101-131 147-64 4 7 5 14 7 22l-32 3c-4-21-16-35-41-35" id="ao"/><g id="b"><use transform="matrix(0.06172839506172839,0,0,0.06172839506172839,0,0)" xlink:href="#aj"/><use transform="matrix(0.06172839506172839,0,0,0.06172839506172839,11.11111111111111,0)" xlink:href="#ak"/><use transform="matrix(0.06172839506172839,0,0,0.06172839506172839,15.987654320987653,0)" xlink:href="#af"/><use transform="matrix(0.06172839506172839,0,0,0.06172839506172839,28.333333333333332,0)" xlink:href="#al"/><use transform="matrix(0.06172839506172839,0,0,0.06172839506172839,40.67901234567901,0)" xlink:href="#am"/><use transform="matrix(0.06172839506172839,0,0,0.06172839506172839,53.02469135802469,0)" xlink:href="#an"/><use transform="matrix(0.06172839506172839,0,0,0.06172839506172839,65.37037037037037,0)" xlink:href="#ao"/></g><use transform="matrix(0.06172839506172839,0,0,0.06172839506172839,0,0)" xlink:href="#aj" id="c"/><path fill="#333" d="M240 0l2-218c-23 76-54 145-80 218h-23L58-218 59 0H30v-248h44l77 211c21-75 51-140 76-211h43V0h-30" id="ap"/><path fill="#333" d="M205 0l-28-72H64L36 0H1l101-248h38L239 0h-34zm-38-99l-47-123c-12 45-31 82-46 123h93" id="aq"/><path fill="#333" d="M212-179c-10-28-35-45-73-45-59 0-87 40-87 99 0 60 29 101 89 101 43 0 62-24 78-52l27 14C228-24 195 4 139 4 59 4 22-46 18-125c-6-104 99-153 187-111 19 9 31 26 39 46" id="ar"/><g id="d"><use transform="matrix(0.06172839506172839,0,0,0.06172839506172839,0,0)" xlink:href="#ap"/><use transform="matrix(0.06172839506172839,0,0,0.06172839506172839,18.456790123456788,0)" xlink:href="#aq"/><use transform="matrix(0.06172839506172839,0,0,0.06172839506172839,33.2716049382716,0)" xlink:href="#ar"/></g><path fill="#333" d="M141-36C126-15 110 5 73 4 37 3 15-17 15-53c-1-64 63-63 125-63 3-35-9-54-41-54-24 1-41 7-42 31l-33-3c5-37 33-52 76-52 45 0 72 20 72 64v82c-1 20 7 32 28 27v20c-31 9-61-2-59-35zM48-53c0 20 12 33 32 33 41-3 63-29 60-74-43 2-92-5-92 41" id="as"/><path fill="#333" d="M85-194c31 0 48 13 60 33l-1-100h32l1 261h-30c-2-10 0-23-3-31C134-8 116 4 85 4 32 4 16-35 15-94c0-66 23-100 70-100zm9 24c-40 0-46 34-46 75 0 40 6 74 45 74 42 0 51-32 51-76 0-42-9-74-50-73" id="at"/><path fill="#333" d="M114-163C36-179 61-72 57 0H25l-1-190h30c1 12-1 29 2 39 6-27 23-49 58-41v29" id="au"/><path fill="#333" d="M210-169c-67 3-38 105-44 169h-31v-121c0-29-5-50-35-48C34-165 62-65 56 0H25l-1-190h30c1 10-1 24 2 32 10-44 99-50 107 0 11-21 27-35 58-36 85-2 47 119 55 194h-31v-121c0-29-5-49-35-48" id="av"/><g id="e"><use transform="matrix(0.06172839506172839,0,0,0.06172839506172839,0,0)" xlink:href="#as"/><use transform="matrix(0.06172839506172839,0,0,0.06172839506172839,12.345679012345679,0)" xlink:href="#at"/><use transform="matrix(0.06172839506172839,0,0,0.06172839506172839,24.691358024691358,0)" xlink:href="#au"/><use transform="matrix(0.06172839506172839,0,0,0.06172839506172839,32.03703703703704,0)" xlink:href="#an"/><use transform="matrix(0.06172839506172839,0,0,0.06172839506172839,44.382716049382715,0)" xlink:href="#aj"/><use transform="matrix(0.06172839506172839,0,0,0.06172839506172839,55.49382716049382,0)" xlink:href="#as"/><use transform="matrix(0.06172839506172839,0,0,0.06172839506172839,67.8395061728395,0)" xlink:href="#av"/><use transform="matrix(0.06172839506172839,0,0,0.06172839506172839,86.29629629629629,0)" xlink:href="#as"/></g><path fill="#333" d="M115-194c53 0 69 39 70 98 0 66-23 100-70 100C84 3 66-7 56-30L54 0H23l1-261h32v101c10-23 28-34 59-34zm-8 174c40 0 45-34 45-75 0-40-5-75-45-74-42 0-51 32-51 76 0 43 10 73 51 73" id="aw"/><path fill="#333" d="M106-169C34-169 62-67 57 0H25v-261h32l-1 103c12-21 28-36 61-36 89 0 53 116 60 194h-32v-121c2-32-8-49-39-48" id="ax"/><path fill="#333" d="M24-231v-30h32v30H24zM-9 49c24 4 33-6 33-30v-209h32V24c2 40-23 58-65 49V49" id="ay"/><g id="f"><use transform="matrix(0.06172839506172839,0,0,0.06172839506172839,0,0)" xlink:href="#af"/><use transform="matrix(0.06172839506172839,0,0,0.06172839506172839,12.345679012345679,0)" xlink:href="#aw"/><use transform="matrix(0.06172839506172839,0,0,0.06172839506172839,24.691358024691358,0)" xlink:href="#aj"/><use transform="matrix(0.06172839506172839,0,0,0.06172839506172839,35.80246913580247,0)" xlink:href="#as"/><use transform="matrix(0.06172839506172839,0,0,0.06172839506172839,48.148148148148145,0)" xlink:href="#ax"/><use transform="matrix(0.06172839506172839,0,0,0.06172839506172839,60.49382716049382,0)" xlink:href="#al"/><use transform="matrix(0.06172839506172839,0,0,0.06172839506172839,72.8395061728395,0)" xlink:href="#ay"/><use transform="matrix(0.06172839506172839,0,0,0.06172839506172839,77.71604938271605,0)" xlink:href="#an"/></g><g id="g"><use transform="matrix(0.06172839506172839,0,0,0.06172839506172839,0,0)" xlink:href="#am"/><use transform="matrix(0.06172839506172839,0,0,0.06172839506172839,12.345679012345679,0)" xlink:href="#af"/><use transform="matrix(0.06172839506172839,0,0,0.06172839506172839,24.691358024691358,0)" xlink:href="#al"/><use transform="matrix(0.06172839506172839,0,0,0.06172839506172839,37.03703703703704,0)" xlink:href="#ag"/><use transform="matrix(0.06172839506172839,0,0,0.06172839506172839,48.14814814814815,0)" xlink:href="#an"/></g><path fill="#333" d="M34 0v-190h32V0H34zM24-211c8-23 27-35 38-54h36v5l-58 49H24" id="az"/><g id="h"><use transform="matrix(0.06172839506172839,0,0,0.06172839506172839,0,0)" xlink:href="#am"/><use transform="matrix(0.06172839506172839,0,0,0.06172839506172839,12.345679012345679,0)" xlink:href="#af"/><use transform="matrix(0.06172839506172839,0,0,0.06172839506172839,24.691358024691358,0)" xlink:href="#aj"/><use transform="matrix(0.06172839506172839,0,0,0.06172839506172839,35.80246913580247,0)" xlink:href="#ak"/><use transform="matrix(0.06172839506172839,0,0,0.06172839506172839,40.67901234567901,0)" xlink:href="#an"/><use transform="matrix(0.06172839506172839,0,0,0.06172839506172839,53.02469135802469,0)" xlink:href="#at"/><use transform="matrix(0.06172839506172839,0,0,0.06172839506172839,65.37037037037037,0)" xlink:href="#ah"/><use transform="matrix(0.06172839506172839,0,0,0.06172839506172839,77.71604938271605,0)" xlink:href="#az"/></g><path fill="#333" d="M101-251c82-7 93 87 43 132L82-64C71-53 59-42 53-27h129V0H18c2-99 128-94 128-182 0-28-16-43-45-43s-46 15-49 41l-32-3c6-41 34-60 81-64" id="aA"/><path fill="#333" d="M160-131c35 5 61 23 61 61C221 17 115-2 30 0v-248c76 3 177-17 177 60 0 33-19 50-47 57zm-97-11c50-1 110 9 110-42 0-47-63-36-110-37v79zm0 115c55-2 124 14 124-45 0-56-70-42-124-44v89" id="aB"/><g id="i"><use transform="matrix(0.06172839506172839,0,0,0.06172839506172839,0,0)" xlink:href="#aA"/><use transform="matrix(0.06172839506172839,0,0,0.06172839506172839,12.345679012345679,0)" xlink:href="#aB"/></g><path d="M169-182c-1-43-94-46-97-3 18 66 151 10 154 114 3 95-165 93-204 36-6-8-10-19-12-30l50-8c3 46 112 56 116 5-17-69-150-10-154-114-4-87 153-88 188-35 5 8 8 18 10 28" id="aC"/><path d="M23 0v-37h61v-169l-59 37v-38l62-41h46v211h57V0H23" id="aD"/><g id="j"><use transform="matrix(0.06172839506172839,0,0,0.06172839506172839,0,0)" xlink:href="#aC"/><use transform="matrix(0.06172839506172839,0,0,0.06172839506172839,14.814814814814813,0)" xlink:href="#aD"/></g><path d="M182-182c0 78-84 86-111 141h115V0H12c-6-101 99-100 120-180 1-22-12-31-33-32-23 0-32 14-35 34l-49-3c5-45 32-70 84-70 51 0 83 22 83 69" id="aE"/><g id="k"><use transform="matrix(0.05432111111111112,0,0,0.05432111111111112,0,0)" xlink:href="#aC"/><use transform="matrix(0.05432111111111112,0,0,0.05432111111111112,13.037066666666668,0)" xlink:href="#aE"/></g><path d="M24-248c93 1 206-16 204 79-1 75-69 88-152 82V0H24v-248zm52 121c47 0 100 7 100-41 0-47-54-39-100-39v80" id="aF"/><path d="M140-251c80 0 125 45 125 126S219 4 139 4C58 4 15-44 15-125s44-126 125-126zm-1 214c52 0 73-35 73-88 0-50-21-86-72-86-52 0-73 35-73 86s22 88 72 88" id="aG"/><path d="M240-174c0 40-23 61-54 70L253 0h-59l-57-94H76V0H24v-248c93 4 217-23 216 74zM76-134c48-2 112 12 112-38 0-48-66-32-112-35v73" id="aH"/><path d="M136-208V0H84v-208H4v-40h212v40h-80" id="aI"/><g id="l"><use transform="matrix(0.06172839506172839,0,0,0.06172839506172839,0,0)" xlink:href="#aF"/><use transform="matrix(0.06172839506172839,0,0,0.06172839506172839,14.814814814814813,0)" xlink:href="#aG"/><use transform="matrix(0.06172839506172839,0,0,0.06172839506172839,32.09876543209876,0)" xlink:href="#aH"/><use transform="matrix(0.06172839506172839,0,0,0.06172839506172839,48.08641975308641,0)" xlink:href="#aI"/></g><path d="M230 0l2-204L168 0h-37L68-204 70 0H24v-248h70l56 185 57-185h69V0h-46" id="aJ"/><path d="M199 0l-22-63H83L61 0H9l90-248h61L250 0h-51zm-33-102l-36-108c-10 38-24 72-36 108h72" id="aK"/><path d="M67-125c0 53 21 87 73 88 37 1 54-22 65-47l45 17C233-25 199 4 140 4 58 4 20-42 15-125 8-235 124-281 211-232c18 10 29 29 36 50l-46 12c-8-25-30-41-62-41-52 0-71 34-72 86" id="aL"/><g id="m"><use transform="matrix(0.06172839506172839,0,0,0.06172839506172839,0,0)" xlink:href="#aJ"/><use transform="matrix(0.06172839506172839,0,0,0.06172839506172839,18.456790123456788,0)" xlink:href="#aK"/><use transform="matrix(0.06172839506172839,0,0,0.06172839506172839,34.44444444444444,0)" xlink:href="#aL"/></g><path d="M135-150c-39-12-60 13-60 57V0H25l-1-190h47c2 13-1 29 3 40 6-28 27-53 61-41v41zm-39-58H55l-45-56v-5h28c13 11 24 24 38 34l36-34h28c-9 26-31 39-44 61" id="aM"/><path d="M185-48c-13 30-37 53-82 52C43 2 14-33 14-96s30-98 90-98c62 0 83 45 84 108H66c0 31 8 55 39 56 18 0 30-7 34-22zm-45-69c5-46-57-63-70-21-2 6-4 13-4 21h74" id="aN"/><path d="M135-194c53 0 70 44 70 98 0 56-19 98-73 100-31 1-45-17-59-34 3 33 2 69 2 105H25l-1-265h48c2 10 0 23 3 31 11-24 29-35 60-35zM114-30c33 0 39-31 40-66 0-38-9-64-40-64-56 0-55 130 0 130" id="aO"/><path d="M110-194c64 0 96 36 96 99 0 64-35 99-97 99-61 0-95-36-95-99 0-62 34-99 96-99zm-1 164c35 0 45-28 45-65 0-40-10-65-43-65-34 0-45 26-45 65 0 36 10 65 43 65" id="aP"/><path d="M137-138c1-29-70-34-71-4 15 46 118 7 119 86 1 83-164 76-172 9l43-7c4 19 20 25 44 25 33 8 57-30 24-41C81-84 22-81 20-136c-2-80 154-74 161-7zm-15-70H81l-45-56v-5h28c13 11 24 24 38 34l36-34h28c-9 26-31 39-44 61" id="aQ"/><path d="M25 0v-261h50V0H25" id="aR"/><g id="n"><use transform="matrix(0.05432111111111112,0,0,0.05432111111111112,0,0)" xlink:href="#aF"/><use transform="matrix(0.05432111111111112,0,0,0.05432111111111112,13.037066666666668,0)" xlink:href="#aM"/><use transform="matrix(0.05432111111111112,0,0,0.05432111111111112,20.642022222222224,0)" xlink:href="#aN"/><use transform="matrix(0.05432111111111112,0,0,0.05432111111111112,31.506244444444448,0)" xlink:href="#aO"/><use transform="matrix(0.05432111111111112,0,0,0.05432111111111112,43.40256777777778,0)" xlink:href="#aP"/><use transform="matrix(0.05432111111111112,0,0,0.05432111111111112,55.29889111111112,0)" xlink:href="#aQ"/><use transform="matrix(0.05432111111111112,0,0,0.05432111111111112,66.16311333333334,0)" xlink:href="#aR"/><use transform="matrix(0.05432111111111112,0,0,0.05432111111111112,71.59522444444445,0)" xlink:href="#aN"/></g><g id="o"><use transform="matrix(0.05432111111111112,0,0,0.05432111111111112,0,0)" xlink:href="#aF"/><use transform="matrix(0.05432111111111112,0,0,0.05432111111111112,13.037066666666668,0)" xlink:href="#aG"/><use transform="matrix(0.05432111111111112,0,0,0.05432111111111112,28.246977777777783,0)" xlink:href="#aH"/><use transform="matrix(0.05432111111111112,0,0,0.05432111111111112,42.31614555555556,0)" xlink:href="#aI"/></g><g id="p"><use transform="matrix(0.05432111111111112,0,0,0.05432111111111112,0,0)" xlink:href="#aJ"/><use transform="matrix(0.05432111111111112,0,0,0.05432111111111112,16.242012222222225,0)" xlink:href="#aK"/><use transform="matrix(0.05432111111111112,0,0,0.05432111111111112,30.31118000000001,0)" xlink:href="#aL"/></g><path d="M24 0v-54h51V0H24" id="aS"/><g id="q"><use transform="matrix(0.06172839506172839,0,0,0.06172839506172839,0,0)" xlink:href="#aD"/><use transform="matrix(0.06172839506172839,0,0,0.06172839506172839,12.345679012345679,0)" xlink:href="#aS"/></g><path d="M88-194c31-1 46 15 58 34l-1-101h50l1 261h-48c-2-10 0-23-3-31C134-8 116 4 84 4 32 4 16-41 15-95c0-56 19-97 73-99zm17 164c33 0 40-30 41-66 1-37-9-64-41-64s-38 30-39 65c0 43 13 65 39 65" id="aT"/><path d="M137-138c1-29-70-34-71-4 15 46 118 7 119 86 1 83-164 76-172 9l43-7c4 19 20 25 44 25 33 8 57-30 24-41C81-84 22-81 20-136c-2-80 154-74 161-7" id="aU"/><path d="M25 0v-190h50V0H25zm-5-208v-5l45-51h45v8l-60 48H20" id="aV"/><path d="M133-34C117-15 103 5 69 4 32 3 11-16 11-54c-1-60 55-63 116-61 1-26-3-47-28-47-18 1-26 9-28 27l-52-2c7-38 36-58 82-57s74 22 75 68l1 82c-1 14 12 18 25 15v27c-30 8-71 5-69-32zm-48 3c29 0 43-24 42-57-32 0-66-3-65 30 0 17 8 27 23 27" id="aW"/><path d="M115-3C79 11 28 4 28-45v-112H4v-33h27l15-45h31v45h36v33H77v99c-1 23 16 31 38 25v30" id="aX"/><g id="r"><use transform="matrix(0.06172839506172839,0,0,0.06172839506172839,0,0)" xlink:href="#aG"/><use transform="matrix(0.06172839506172839,0,0,0.06172839506172839,17.28395061728395,0)" xlink:href="#aT"/><use transform="matrix(0.06172839506172839,0,0,0.06172839506172839,30.80246913580247,0)" xlink:href="#aN"/><use transform="matrix(0.06172839506172839,0,0,0.06172839506172839,43.148148148148145,0)" xlink:href="#aU"/><use transform="matrix(0.06172839506172839,0,0,0.06172839506172839,55.49382716049382,0)" xlink:href="#aV"/><use transform="matrix(0.06172839506172839,0,0,0.06172839506172839,61.666666666666664,0)" xlink:href="#aR"/><use transform="matrix(0.06172839506172839,0,0,0.06172839506172839,67.8395061728395,0)" xlink:href="#aW"/><use transform="matrix(0.06172839506172839,0,0,0.06172839506172839,80.18518518518519,0)" xlink:href="#aX"/><use transform="matrix(0.06172839506172839,0,0,0.06172839506172839,87.53086419753087,0)" xlink:href="#aN"/><use transform="matrix(0.06172839506172839,0,0,0.06172839506172839,99.87654320987656,0)" xlink:href="#aR"/></g><path d="M25-224v-37h50v37H25zM75 22c2 45-34 59-81 51V38c22 5 31-5 31-27v-201h50V22" id="aY"/><g id="s"><use transform="matrix(0.06172839506172839,0,0,0.06172839506172839,0,0)" xlink:href="#aY"/><use transform="matrix(0.06172839506172839,0,0,0.06172839506172839,6.172839506172839,0)" xlink:href="#aN"/></g><path d="M128-127c34 4 56 21 59 58 7 91-148 94-172 28-4-9-6-17-7-26l51-5c1 24 16 35 40 36 23 0 39-12 38-36-1-31-31-36-65-34v-40c32 2 59-3 59-33 0-20-13-33-34-33s-33 13-35 32l-50-3c6-44 37-68 86-68 50 0 83 20 83 66 0 35-22 52-53 58" id="aZ"/><path d="M76-54c-1 42 2 86-19 110H24C36 42 46 24 48 0H25v-54h51" id="ba"/><g id="t"><use transform="matrix(0.06172839506172839,0,0,0.06172839506172839,0,0)" xlink:href="#aF"/><use transform="matrix(0.06172839506172839,0,0,0.06172839506172839,14.814814814814813,0)" xlink:href="#aL"/><use transform="matrix(0.06172839506172839,0,0,0.06172839506172839,30.80246913580247,0)" xlink:href="#aZ"/><use transform="matrix(0.06172839506172839,0,0,0.06172839506172839,43.148148148148145,0)" xlink:href="#ba"/></g><path d="M190-63c-7 42-38 67-86 67-59 0-84-38-90-98-12-110 154-137 174-36l-49 2c-2-19-15-32-35-32-30 0-35 28-38 64-6 74 65 87 74 30" id="bb"/><g id="u"><use transform="matrix(0.06172839506172839,0,0,0.06172839506172839,0,0)" xlink:href="#bb"/><use transform="matrix(0.06172839506172839,0,0,0.06172839506172839,12.345679012345679,0)" xlink:href="#aV"/><use transform="matrix(0.06172839506172839,0,0,0.06172839506172839,18.51851851851852,0)" xlink:href="#aR"/></g><g id="v"><use transform="matrix(0.06172839506172839,0,0,0.06172839506172839,0,0)" xlink:href="#aF"/><use transform="matrix(0.06172839506172839,0,0,0.06172839506172839,14.814814814814813,0)" xlink:href="#aL"/><use transform="matrix(0.06172839506172839,0,0,0.06172839506172839,30.80246913580247,0)" xlink:href="#aE"/><use transform="matrix(0.06172839506172839,0,0,0.06172839506172839,43.148148148148145,0)" xlink:href="#aS"/></g><path d="M165-50V0h-47v-50H5v-38l105-160h55v161h33v37h-33zm-47-37l2-116L46-87h72" id="bc"/><use transform="matrix(0.06172839506172839,0,0,0.06172839506172839,0,0)" xlink:href="#bc" id="w"/><g id="x"><use transform="matrix(0.06172839506172839,0,0,0.06172839506172839,0,0)" xlink:href="#aZ"/><use transform="matrix(0.06172839506172839,0,0,0.06172839506172839,12.345679012345679,0)" xlink:href="#aZ"/></g><path d="M147 0H94L2-248h55l64 206c17-72 42-137 63-206h54" id="bd"/><path d="M220-157c-53 9-28 100-34 157h-49v-107c1-27-5-49-29-50C55-147 81-57 75 0H25l-1-190h47c2 12-1 28 3 38 10-53 101-56 108 0 13-22 24-43 59-42 82 1 51 116 57 194h-49v-107c-1-25-5-48-29-50" id="be"/><g id="y"><use transform="matrix(0.05432111111111112,0,0,0.05432111111111112,0,0)" xlink:href="#bd"/><use transform="matrix(0.05432111111111112,0,0,0.05432111111111112,13.037066666666668,0)" xlink:href="#aQ"/><use transform="matrix(0.05432111111111112,0,0,0.05432111111111112,23.901288888888892,0)" xlink:href="#aN"/><use transform="matrix(0.05432111111111112,0,0,0.05432111111111112,34.76551111111112,0)" xlink:href="#be"/></g><path d="M147 0L96-86 75-71V0H25v-261h50v150l67-79h53l-66 74L201 0h-54" id="bf"/><path d="M135-150c-39-12-60 13-60 57V0H25l-1-190h47c2 13-1 29 3 40 6-28 27-53 61-41v41" id="bg"/><path d="M185-48c-13 30-37 53-82 52C43 2 14-33 14-96s30-98 90-98c62 0 83 45 84 108H66c0 31 8 55 39 56 18 0 30-7 34-22zm-45-69c5-46-57-63-70-21-2 6-4 13-4 21h74zm-16-91H83l-45-56v-5h28c13 11 24 24 38 34l36-34h28c-9 26-31 39-44 61" id="bh"/><g id="z"><use transform="matrix(0.05432111111111112,0,0,0.05432111111111112,0,0)" xlink:href="#bf"/><use transform="matrix(0.05432111111111112,0,0,0.05432111111111112,10.864222222222224,0)" xlink:href="#bg"/><use transform="matrix(0.05432111111111112,0,0,0.05432111111111112,18.46917777777778,0)" xlink:href="#aP"/><use transform="matrix(0.05432111111111112,0,0,0.05432111111111112,30.365501111111115,0)" xlink:href="#be"/><use transform="matrix(0.05432111111111112,0,0,0.05432111111111112,47.74825666666668,0)" xlink:href="#bh"/></g><g id="A"><use transform="matrix(0.05432111111111112,0,0,0.05432111111111112,0,0)" xlink:href="#aF"/><use transform="matrix(0.05432111111111112,0,0,0.05432111111111112,13.037066666666668,0)" xlink:href="#aG"/><use transform="matrix(0.05432111111111112,0,0,0.05432111111111112,28.246977777777783,0)" xlink:href="#aH"/><use transform="matrix(0.05432111111111112,0,0,0.05432111111111112,42.31614555555556,0)" xlink:href="#aI"/></g><use transform="matrix(0.05432111111111112,0,0,0.05432111111111112,0,0)" xlink:href="#bc" id="B"/><use transform="matrix(0.05432111111111112,0,0,0.05432111111111112,0,0)" xlink:href="#aD" id="C"/><g id="D"><use transform="matrix(0.05432111111111112,0,0,0.05432111111111112,0,0)" xlink:href="#aZ"/><use transform="matrix(0.05432111111111112,0,0,0.05432111111111112,10.864222222222224,0)" xlink:href="#aZ"/></g><use transform="matrix(0.05432111111111112,0,0,0.05432111111111112,0,0)" xlink:href="#aD" id="E"/><g id="F"><use transform="matrix(0.05432111111111112,0,0,0.05432111111111112,0,0)" xlink:href="#aE"/><use transform="matrix(0.05432111111111112,0,0,0.05432111111111112,10.864222222222224,0)" xlink:href="#aS"/></g><g id="G"><use transform="matrix(0.05432111111111112,0,0,0.05432111111111112,0,0)" xlink:href="#aG"/><use transform="matrix(0.05432111111111112,0,0,0.05432111111111112,15.209911111111113,0)" xlink:href="#aT"/><use transform="matrix(0.05432111111111112,0,0,0.05432111111111112,27.106234444444446,0)" xlink:href="#aN"/><use transform="matrix(0.05432111111111112,0,0,0.05432111111111112,37.97045666666667,0)" xlink:href="#aU"/><use transform="matrix(0.05432111111111112,0,0,0.05432111111111112,48.834678888888895,0)" xlink:href="#aV"/><use transform="matrix(0.05432111111111112,0,0,0.05432111111111112,54.26679000000001,0)" xlink:href="#aR"/><use transform="matrix(0.05432111111111112,0,0,0.05432111111111112,59.69890111111112,0)" xlink:href="#aW"/><use transform="matrix(0.05432111111111112,0,0,0.05432111111111112,70.56312333333335,0)" xlink:href="#aX"/><use transform="matrix(0.05432111111111112,0,0,0.05432111111111112,77.02733555555557,0)" xlink:href="#aN"/><use transform="matrix(0.05432111111111112,0,0,0.05432111111111112,87.89155777777779,0)" xlink:href="#aR"/></g><g id="H"><use transform="matrix(0.05432111111111112,0,0,0.05432111111111112,0,0)" xlink:href="#aY"/><use transform="matrix(0.05432111111111112,0,0,0.05432111111111112,5.432111111111112,0)" xlink:href="#aN"/></g><g id="I"><use transform="matrix(0.05432111111111112,0,0,0.05432111111111112,0,0)" xlink:href="#aF"/><use transform="matrix(0.05432111111111112,0,0,0.05432111111111112,13.037066666666668,0)" xlink:href="#aL"/><use transform="matrix(0.05432111111111112,0,0,0.05432111111111112,27.106234444444446,0)" xlink:href="#bc"/><use transform="matrix(0.05432111111111112,0,0,0.05432111111111112,37.97045666666667,0)" xlink:href="#ba"/></g><g id="J"><use transform="matrix(0.05432111111111112,0,0,0.05432111111111112,0,0)" xlink:href="#bb"/><use transform="matrix(0.05432111111111112,0,0,0.05432111111111112,10.864222222222224,0)" xlink:href="#aV"/><use transform="matrix(0.05432111111111112,0,0,0.05432111111111112,16.296333333333337,0)" xlink:href="#aR"/></g><g id="K"><use transform="matrix(0.05432111111111112,0,0,0.05432111111111112,0,0)" xlink:href="#aF"/><use transform="matrix(0.05432111111111112,0,0,0.05432111111111112,13.037066666666668,0)" xlink:href="#aL"/><use transform="matrix(0.05432111111111112,0,0,0.05432111111111112,27.106234444444446,0)" xlink:href="#aZ"/><use transform="matrix(0.05432111111111112,0,0,0.05432111111111112,37.97045666666667,0)" xlink:href="#aS"/></g><use transform="matrix(0.05432111111111112,0,0,0.05432111111111112,0,0)" xlink:href="#aZ" id="L"/><g id="M"><use transform="matrix(0.05432111111111112,0,0,0.05432111111111112,0,0)" xlink:href="#bc"/><use transform="matrix(0.05432111111111112,0,0,0.05432111111111112,10.864222222222224,0)" xlink:href="#bc"/></g><g id="N"><use transform="matrix(0.05432111111111112,0,0,0.05432111111111112,0,0)" xlink:href="#aF"/><use transform="matrix(0.05432111111111112,0,0,0.05432111111111112,13.037066666666668,0)" xlink:href="#aG"/><use transform="matrix(0.05432111111111112,0,0,0.05432111111111112,28.246977777777783,0)" xlink:href="#aH"/><use transform="matrix(0.05432111111111112,0,0,0.05432111111111112,42.31614555555556,0)" xlink:href="#aI"/></g><use transform="matrix(0.05432111111111112,0,0,0.05432111111111112,0,0)" xlink:href="#bc" id="O"/><use transform="matrix(0.05432111111111112,0,0,0.05432111111111112,0,0)" xlink:href="#aD" id="P"/><g id="Q"><use transform="matrix(0.05432111111111112,0,0,0.05432111111111112,0,0)" xlink:href="#aZ"/><use transform="matrix(0.05432111111111112,0,0,0.05432111111111112,10.864222222222224,0)" xlink:href="#aS"/></g><path d="M139-81c0-46-55-55-73-27H18l9-140h149v37H72l-4 63c44-38 133-4 122 66C201 21 21 35 11-62l49-4c5 18 15 30 39 30 26 0 40-18 40-45" id="bi"/><g id="R"><use transform="matrix(0.05432111111111112,0,0,0.05432111111111112,0,0)" xlink:href="#aF"/><use transform="matrix(0.05432111111111112,0,0,0.05432111111111112,13.037066666666668,0)" xlink:href="#aL"/><use transform="matrix(0.05432111111111112,0,0,0.05432111111111112,27.106234444444446,0)" xlink:href="#bi"/><use transform="matrix(0.05432111111111112,0,0,0.05432111111111112,37.97045666666667,0)" xlink:href="#ba"/></g><g id="S"><use transform="matrix(0.05432111111111112,0,0,0.05432111111111112,0,0)" xlink:href="#aF"/><use transform="matrix(0.05432111111111112,0,0,0.05432111111111112,13.037066666666668,0)" xlink:href="#aL"/><use transform="matrix(0.05432111111111112,0,0,0.05432111111111112,27.106234444444446,0)" xlink:href="#bc"/><use transform="matrix(0.05432111111111112,0,0,0.05432111111111112,37.97045666666667,0)" xlink:href="#aS"/></g><use transform="matrix(0.05432111111111112,0,0,0.05432111111111112,0,0)" xlink:href="#aE" id="T"/><g id="U"><use transform="matrix(0.05432111111111112,0,0,0.05432111111111112,0,0)" xlink:href="#bi"/><use transform="matrix(0.05432111111111112,0,0,0.05432111111111112,10.864222222222224,0)" xlink:href="#bi"/></g><use transform="matrix(0.05432111111111112,0,0,0.05432111111111112,0,0)" xlink:href="#aZ" id="V"/><g id="W"><use transform="matrix(0.05432111111111112,0,0,0.05432111111111112,0,0)" xlink:href="#bc"/><use transform="matrix(0.05432111111111112,0,0,0.05432111111111112,10.864222222222224,0)" xlink:href="#aS"/></g><g id="X"><use transform="matrix(0.05432111111111112,0,0,0.05432111111111112,0,0)" xlink:href="#aF"/><use transform="matrix(0.05432111111111112,0,0,0.05432111111111112,13.037066666666668,0)" xlink:href="#aL"/><use transform="matrix(0.05432111111111112,0,0,0.05432111111111112,27.106234444444446,0)" xlink:href="#aD"/><use transform="matrix(0.05432111111111112,0,0,0.05432111111111112,37.97045666666667,0)" xlink:href="#ba"/></g><g id="Y"><use transform="matrix(0.05432111111111112,0,0,0.05432111111111112,0,0)" xlink:href="#aF"/><use transform="matrix(0.05432111111111112,0,0,0.05432111111111112,13.037066666666668,0)" xlink:href="#aL"/><use transform="matrix(0.05432111111111112,0,0,0.05432111111111112,27.106234444444446,0)" xlink:href="#aE"/><use transform="matrix(0.05432111111111112,0,0,0.05432111111111112,37.97045666666667,0)" xlink:href="#aS"/></g><g id="Z"><use transform="matrix(0.05432111111111112,0,0,0.05432111111111112,0,0)" xlink:href="#aD"/><use transform="matrix(0.05432111111111112,0,0,0.05432111111111112,9.777800000000003,0)" xlink:href="#aD"/></g><g id="aa"><use transform="matrix(0.05432111111111112,0,0,0.05432111111111112,0,0)" xlink:href="#bi"/><use transform="matrix(0.05432111111111112,0,0,0.05432111111111112,10.864222222222224,0)" xlink:href="#aS"/></g><g id="ab"><use transform="matrix(0.05432111111111112,0,0,0.05432111111111112,0,0)" xlink:href="#aF"/><use transform="matrix(0.05432111111111112,0,0,0.05432111111111112,13.037066666666668,0)" xlink:href="#aL"/><use transform="matrix(0.05432111111111112,0,0,0.05432111111111112,27.106234444444446,0)" xlink:href="#aE"/><use transform="matrix(0.05432111111111112,0,0,0.05432111111111112,37.97045666666667,0)" xlink:href="#ba"/></g><g id="ac"><use transform="matrix(0.05432111111111112,0,0,0.05432111111111112,0,0)" xlink:href="#aF"/><use transform="matrix(0.05432111111111112,0,0,0.05432111111111112,13.037066666666668,0)" xlink:href="#aL"/><use transform="matrix(0.05432111111111112,0,0,0.05432111111111112,27.106234444444446,0)" xlink:href="#aD"/></g><g id="ad"><use transform="matrix(0.05432111111111112,0,0,0.05432111111111112,0,0)" xlink:href="#aE"/><use transform="matrix(0.05432111111111112,0,0,0.05432111111111112,10.864222222222224,0)" xlink:href="#aE"/></g></defs></g></svg>